<svg aria-hidden="true" style="width:0;height:0;position:absolute;overflow:hidden" xmlns="http://www.w3.org/2000/svg"><defs><symbol id="bag" viewBox="0 0 32 32"><path d="M28.784 27.734 26.943 6.981a.789.789 0 0 0-.795-.722h-3.882C22.259 2.808 19.451-.001 16-.001s-6.26 2.809-6.266 6.26H5.852a.798.798 0 0 0-.795.722L3.216 27.734v.073C3.216 30.119 5.342 32 7.952 32h16.096c2.61 0 4.736-1.881 4.736-4.193v-.073zM16 1.59a4.682 4.682 0 0 1 4.676 4.67h-9.353a4.683 4.683 0 0 1 4.676-4.67zm8.048 28.814H7.952c-1.722 0-3.126-1.146-3.146-2.57L6.581 7.85h3.153v2.789c0 .437.358.795.795.795s.795-.358.795-.795V7.85h9.353v2.789c0 .437.358.795.795.795s.795-.358.795-.795V7.85h3.153l1.775 19.991c-.02 1.418-1.424 2.563-3.146 2.563z"/></symbol><symbol id="close" viewBox="0 0 32 32"><path d="M29.835 0 16 13.882 2.165 0 .046 2.112 13.888 16 .046 29.889 2.165 32 16 18.119 29.835 32l2.119-2.111L18.112 16 31.954 2.112z"/></symbol><symbol id="email" viewBox="0 0 32 32"><path d="M29.333 4H2.666c-.736 0-1.333.597-1.333 1.333v21.333c0 .736.597 1.333 1.333 1.333h26.667c.736 0 1.333-.597 1.333-1.333V5.333c0-.736-.597-1.333-1.333-1.333zM28 25.333H4V12.636l11.504 4.603a1.344 1.344 0 0 0 1.001-.003l-.009.003L28 12.636zm0-15.569-12 4.8-12-4.8V6.667h24z"/></symbol><symbol id="inst" viewBox="0 0 32 32"><path d="M23.169 0H8.831C3.962 0 0 3.962 0 8.831v14.338C0 28.038 3.961 32 8.831 32h14.338C28.039 32 32 28.038 32 23.169V8.831C32 3.962 28.039 0 23.169 0zm5.992 23.169a5.999 5.999 0 0 1-5.992 5.992H8.831a5.998 5.998 0 0 1-5.991-5.992V8.831a5.999 5.999 0 0 1 5.991-5.992h14.338a5.999 5.999 0 0 1 5.992 5.992v14.338z"/><path d="M16 7.755c-4.547 0-8.246 3.699-8.246 8.246s3.699 8.245 8.246 8.245 8.246-3.699 8.246-8.245c0-4.547-3.699-8.246-8.246-8.246zm0 13.651c-2.981 0-5.406-2.425-5.406-5.406s2.425-5.406 5.406-5.406 5.406 2.425 5.406 5.406A5.412 5.412 0 0 1 16 21.406zM24.591 5.347c-.547 0-1.084.221-1.471.609a2.093 2.093 0 0 0-.611 1.473 2.1 2.1 0 0 0 .611 1.473c.386.386.924.609 1.471.609.549 0 1.085-.223 1.473-.609.388-.388.609-.926.609-1.473 0-.549-.221-1.086-.609-1.473a2.091 2.091 0 0 0-1.473-.609z"/></symbol><symbol id="telegram" viewBox="0 0 32 32"><path d="M25.761 30.312c-.25 0-.498-.074-.711-.218l-8.046-5.458-4.315 3.105a1.268 1.268 0 0 1-1.965-.705l-2.167-8.212-7.742-2.96a1.266 1.266 0 0 1-.016-2.361L30.238 1.789a1.269 1.269 0 0 1 1.382.262c.023.023.046.046.067.071a1.261 1.261 0 0 1 .287 1.087l-4.969 26.073a1.268 1.268 0 0 1-1.244 1.03zm-8.051-8.259 7.167 4.861 3.867-20.288-13.965 13.438 2.897 1.966a.405.405 0 0 1 .034.023zm-5.966-1.081.96 3.636 2.068-1.488-2.707-1.837a1.25 1.25 0 0 1-.32-.312zm-6.992-6.315 5.316 2.033c.381.146.668.466.772.86l.674 2.555c.031-.295.165-.572.382-.781L25.203 6.52 4.752 14.657z"/></symbol></defs></svg>