<svg aria-hidden="true" style="position: absolute; width: 0; height: 0; overflow: hidden;" version="1.1" xmlns="http://www.w3.org/2000/svg" xmlns:xlink="http://www.w3.org/1999/xlink">
<defs>
<symbol id="bag" viewBox="0 0 32 32">
<path d="M28.784 27.734l-1.841-20.753c-0.033-0.411-0.378-0.722-0.795-0.722h-3.882c-0.007-3.451-2.815-6.26-6.266-6.26s-6.26 2.809-6.266 6.26h-3.882c-0.411 0-0.755 0.311-0.795 0.722l-1.841 20.753c0 0.026 0 0.046 0 0.073 0 2.312 2.126 4.193 4.736 4.193h16.096c2.61 0 4.736-1.881 4.736-4.193 0-0.026 0-0.046 0-0.073zM16 1.59c2.577 0 4.67 2.093 4.676 4.67h-9.353c0.007-2.577 2.1-4.67 4.676-4.67zM24.048 30.404h-16.096c-1.722 0-3.126-1.146-3.146-2.57l1.775-19.984h3.153v2.789c0 0.437 0.358 0.795 0.795 0.795s0.795-0.358 0.795-0.795v-2.789h9.353v2.789c0 0.437 0.358 0.795 0.795 0.795s0.795-0.358 0.795-0.795v-2.789h3.153l1.775 19.991c-0.020 1.418-1.424 2.563-3.146 2.563z"></path>
</symbol>
<symbol id="close" viewBox="0 0 32 32">
<path d="M29.835 0l-13.835 13.882-13.835-13.882-2.119 2.112 13.842 13.888-13.842 13.889 2.119 2.111 13.835-13.881 13.835 13.881 2.119-2.111-13.842-13.889 13.842-13.888z"></path>
</symbol>
<symbol id="email" viewBox="0 0 32 32">
<path d="M29.333 4h-26.667c-0.736 0-1.333 0.597-1.333 1.333v0 21.333c0 0.736 0.597 1.333 1.333 1.333v0h26.667c0.736 0 1.333-0.597 1.333-1.333v0-21.333c0-0.736-0.597-1.333-1.333-1.333v0zM28 25.333h-24v-12.697l11.504 4.603c0.147 0.060 0.317 0.095 0.496 0.095s0.349-0.035 0.505-0.098l-0.009 0.003 11.504-4.603zM28 9.764l-12 4.8-12-4.8v-3.097h24z"></path>
</symbol>
<symbol id="inst" viewBox="0 0 32 32">
<path d="M23.169 0h-14.338c-4.869 0-8.831 3.962-8.831 8.831v14.338c0 4.869 3.961 8.831 8.831 8.831h14.338c4.87 0 8.831-3.962 8.831-8.831v-14.338c0-4.869-3.961-8.831-8.831-8.831zM29.161 23.169c0 3.304-2.688 5.992-5.992 5.992h-14.338c-3.304 0-5.991-2.688-5.991-5.992v-14.338c0-3.304 2.688-5.992 5.991-5.992h14.338c3.304 0 5.992 2.688 5.992 5.992v14.338z"></path>
<path d="M16 7.755c-4.547 0-8.246 3.699-8.246 8.246s3.699 8.245 8.246 8.245 8.246-3.699 8.246-8.245c0-4.547-3.699-8.246-8.246-8.246zM16 21.406c-2.981 0-5.406-2.425-5.406-5.406s2.425-5.406 5.406-5.406 5.406 2.425 5.406 5.406c0 2.981-2.425 5.406-5.406 5.406z"></path>
<path d="M24.591 5.347c-0.547 0-1.084 0.221-1.471 0.609-0.388 0.386-0.611 0.924-0.611 1.473 0 0.547 0.223 1.085 0.611 1.473 0.386 0.386 0.924 0.609 1.471 0.609 0.549 0 1.085-0.223 1.473-0.609 0.388-0.388 0.609-0.926 0.609-1.473 0-0.549-0.221-1.086-0.609-1.473-0.386-0.388-0.924-0.609-1.473-0.609z"></path>
</symbol>
<symbol id="telegram" viewBox="0 0 32 32">
<path d="M25.761 30.312c-0.25 0-0.498-0.074-0.711-0.218l-8.046-5.458-4.315 3.105c-0.338 0.243-0.775 0.305-1.168 0.164s-0.691-0.466-0.797-0.869l-2.167-8.212-7.742-2.96c-0.487-0.186-0.811-0.653-0.814-1.175s0.313-0.993 0.798-1.186l29.439-11.714c0.134-0.057 0.275-0.089 0.418-0.098 0.051-0.003 0.102-0.003 0.153-0 0.295 0.018 0.585 0.138 0.811 0.36 0.023 0.023 0.046 0.046 0.067 0.071 0.187 0.214 0.291 0.475 0.31 0.741 0.005 0.067 0.004 0.135-0.002 0.202-0.004 0.048-0.011 0.096-0.021 0.144l-4.969 26.073c-0.080 0.419-0.365 0.769-0.759 0.933-0.156 0.065-0.321 0.097-0.485 0.097zM17.71 22.053l7.167 4.861 3.867-20.288-13.965 13.438 2.897 1.966c0.012 0.007 0.023 0.015 0.034 0.023zM11.744 20.972l0.96 3.636 2.068-1.488-2.707-1.837c-0.126-0.085-0.234-0.191-0.32-0.312zM4.752 14.657l5.316 2.033c0.381 0.146 0.668 0.466 0.772 0.86l0.674 2.555c0.031-0.295 0.165-0.572 0.382-0.781l13.307-12.804-20.451 8.137z"></path>
</symbol>
</defs>
</svg>